# xmcd
#
# Track frame offsets:
#	150
#	19847
#	32897
#	46622
#	64555
#	81507
#	96275
#	116815
#	133760
#	143100
#	158650
#
# Disc length: 2408 seconds
#
# Revision: 0
# Processed by: cddbd v1.5.2PL0 Copyright (c) Steve Scherf et al.
# Submitted via: audiograbber 1.83.01
#
DISCID=9109660b
DTITLE=Michael O'Conner - Green and Blue
DYEAR=2000
DGENRE=Country
TTITLE0=Slips Through Your Fingers
TTITLE1=The One Who Waits For You
TTITLE2=That Ain't Right
TTITLE3=A Hundred And Four Degrees
TTITLE4=Leavin' Town
TTITLE5=Green And Blue
TTITLE6=Same Thing
TTITLE7=West Memphis Blues
TTITLE8=Ranch Road
TTITLE9=Ballad Of Jack Sullivan
TTITLE10=Prince Charming
EXTD=
EXTT0=
EXTT1=
EXTT2=
EXTT3=
EXTT4=
EXTT5=
EXTT6=
EXTT7=
EXTT8=
EXTT9=
EXTT10=
PLAYORDER=
